<?xml version="1.0" standalone="no"?>
<!DOCTYPE svg PUBLIC "-//W3C//DTD SVG 20010904//EN"
 "http://www.w3.org/TR/2001/REC-SVG-20010904/DTD/svg10.dtd">
<svg version="1.0" xmlns="http://www.w3.org/2000/svg"
 width="32.000000pt" height="26.000000pt" viewBox="0 0 32.000000 26.000000"
 preserveAspectRatio="xMidYMid meet">
<metadata>
Created by potrace 1.15, written by Peter Selinger 2001-2017
</metadata>
<g transform="translate(0.000000,26.000000) scale(0.100000,-0.100000)"
fill="#000000" stroke="none">
<path d="M51 159 l-49 -100 45 -20 c24 -10 61 -19 82 -19 20 0 42 -5 48 -11 7
-7 21 4 46 38 19 26 49 61 65 77 l30 28 -18 31 c-16 26 -33 35 -97 54 -43 12
-84 23 -91 23 -7 0 -35 -45 -61 -101z m145 69 c65 -18 84 -27 96 -49 15 -26
15 -28 -18 -60 -19 -18 -46 -50 -61 -71 -14 -22 -29 -35 -32 -30 -3 5 -26 19
-51 30 -31 14 -39 21 -25 22 l20 1 -20 9 c-31 13 -55 11 -55 -4 0 -8 17 -20
38 -27 20 -7 31 -14 25 -16 -7 -3 -34 3 -60 13 -25 10 -41 20 -35 22 7 2 12 9
12 15 0 15 72 167 79 167 3 0 42 -9 87 -22z"/>
</g>
</svg>
